<?xml version="1.0" encoding="UTF-8" standalone="no"?>
<!-- Generator: Adobe Illustrator 17.0.2, SVG Export Plug-In . SVG Version: 6.00 Build 0)  -->
<!DOCTYPE svg  PUBLIC '-//W3C//DTD SVG 1.1//EN'  'http://www.w3.org/Graphics/SVG/1.1/DTD/svg11.dtd'>
<svg xmlns="http://www.w3.org/2000/svg" xml:space="preserve" height="269px" width="381px" version="1.1" y="0px" x="0px" xmlns:xlink="http://www.w3.org/1999/xlink" viewBox="0 0 381 269" enable-background="new 0 0 381 269">
<g id="Comp">
	<path d="m275.5 29.999c-58.17 0-105.5 47.331-105.5 105.5 0 58.171 47.326 105.5 105.5 105.5 58.17 0 105.5-47.33 105.5-105.5s-47.33-105.5-105.5-105.5zm49.44 135.1h-98.887c-16.386 0-29.672-13.279-29.672-29.664 0-15.776 12.303-28.666 27.832-29.614-6.943-13.922-1.929-31.028 11.727-38.918 13.657-7.873 30.969-3.668 39.557 9.304 8.592-12.972 25.901-17.178 39.558-9.295 13.656 7.89 18.667 24.985 11.724 38.909 15.534 0.952 27.831 13.838 27.831 29.614 0.01 16.39-13.28 29.66-29.67 29.66zm-82.41-42.2c0 3.638-2.952 6.596-6.593 6.596s-6.596-2.958-6.596-6.596c0-3.645 2.954-6.594 6.596-6.594 3.64-0.01 6.59 2.94 6.59 6.59zm19.78 0c0 3.638-2.952 6.596-6.593 6.596s-6.595-2.958-6.595-6.596c0-3.645 2.954-6.594 6.595-6.594 3.64-0.01 6.59 2.94 6.59 6.59zm19.78 0c0 3.638-2.948 6.596-6.593 6.596-3.641 0-6.593-2.958-6.593-6.596 0-3.645 2.952-6.594 6.593-6.594 3.64-0.01 6.59 2.94 6.59 6.59zm19.78 0c0 3.638-2.949 6.596-6.593 6.596-3.642 0-6.592-2.958-6.592-6.596 0-3.645 2.95-6.594 6.592-6.594 3.64-0.01 6.59 2.94 6.59 6.59zm19.79 0c0 3.638-2.951 6.596-6.595 6.596-3.639 0-6.592-2.958-6.592-6.596 0-3.645 2.953-6.594 6.592-6.594 3.64-0.01 6.6 2.94 6.6 6.59zm-79.13 19.77c0 3.642-2.952 6.594-6.593 6.594s-6.596-2.952-6.596-6.594c0-3.641 2.954-6.588 6.596-6.588 3.64 0 6.59 2.95 6.59 6.59zm13.19 6.6c-3.641 0-6.595-2.952-6.595-6.594 0-3.641 2.954-6.588 6.595-6.588h39.56c3.645 0 6.596 2.947 6.596 6.588 0 3.642-2.951 6.594-6.596 6.594h-39.56zm65.94-6.6c0 3.642-2.951 6.594-6.595 6.594-3.639 0-6.592-2.952-6.592-6.594 0-3.641 2.953-6.588 6.592-6.588 3.64 0 6.6 2.95 6.6 6.59z" fill="#DD4814"/>
	<path d="m119.99 10.733c-38.249-22.091-87.168-8.986-109.26 29.267-22.089 38.263-8.984 87.186 29.279 109.27 38.256 22.087 87.176 8.976 109.26-29.277 22.09-38.262 8.98-87.175-29.28-109.26zm-9.99 105.27c0 6.628-5.365 11.999-11.997 11.999h-35.997c-6.635 0-12.004-5.371-12.004-11.999v-72.004c0-6.624 5.369-11.999 12.004-11.999h35.994c6.632 0 11.997 5.375 11.997 11.999v72.004zm-16.704-55.504h-26.586c-2.601 0-4.703-2.016-4.703-4.501 0-2.481 2.104-4.501 4.703-4.501h26.587c2.591 0 4.705 2.021 4.705 4.501-0.001 2.485-2.115 4.501-4.706 4.501zm0-11.998h-26.586c-2.601 0-4.703-2.012-4.703-4.501 0-2.485 2.104-4.501 4.703-4.501h26.587c2.591 0 4.705 2.016 4.705 4.501-0.001 2.489-2.115 4.501-4.706 4.501zm0 23.997h-26.586c-2.601 0-4.703-2.012-4.703-4.497s2.104-4.499 4.703-4.499h26.587c2.591 0 4.705 2.012 4.705 4.499s-2.115 4.497-4.706 4.497zm-19.301 31.505c0 3.313-2.683 5.996-5.999 5.996-3.308 0-5.99-2.683-5.99-5.996 0-3.312 2.682-6.003 5.99-6.003 3.317 0.001 5.999 2.693 5.999 6.003z" fill="#5E2750"/>
	<path d="m132.84 210.13c2.361 2.36 3.661 5.5 3.661 8.839s-1.301 6.477-3.661 8.838-5.499 3.661-8.837 3.661c-3.339 0-6.478-1.301-8.838-3.661-2.361-2.362-3.662-5.5-3.662-8.838s1.301-6.476 3.663-8.838c2.361-2.362 5.5-3.662 8.838-3.662 3.34 0 6.48 1.3 8.84 3.66zm26.51 44.22c-19.527 19.527-51.182 19.527-70.71 0-19.525-19.529-19.526-51.182 0-70.709 19.528-19.526 51.185-19.528 70.71-0.002 19.53 19.53 19.53 51.18 0 70.71zm2.12-29.2v-12.499h-13.272c-0.589-2.268-1.49-4.435-2.692-6.449l9.398-9.4-8.839-8.838-9.428 9.428c-2.005-1.179-4.161-2.068-6.415-2.643v-13.348h-12.5v13.369c-2.246 0.579-4.395 1.469-6.392 2.649l-9.454-9.454-8.84 8.838 9.444 9.444c-1.188 2-2.083 4.152-2.667 6.404h-13.342v12.499h13.301c0.574 2.269 1.468 4.439 2.654 6.457l-9.391 9.39 8.84 8.838 9.361-9.361c2.023 1.206 4.203 2.113 6.485 2.701v13.224h12.5v-13.204c2.29-0.584 4.478-1.489 6.511-2.696l9.335 9.336 8.839-8.838-9.346-9.348c1.198-2.029 2.1-4.214 2.678-6.5h13.232z" fill="#AEA79F"/>
</g>
<g id="Grid" display="none">
</g>
</svg>
